<svg width="36" height="36" viewBox="0 0 36 36" fill="none" xmlns="http://www.w3.org/2000/svg">
<path d="M30.3148 11.73L18.7648 18.42C18.2998 18.69 17.7148 18.69 17.2348 18.42L5.68483 11.73C4.85983 11.25 4.64983 10.125 5.27983 9.42C5.71483 8.925 6.20983 8.52 6.73483 8.235L14.8648 3.735C16.6048 2.76 19.4248 2.76 21.1648 3.735L29.2948 8.235C29.8198 8.52 30.3148 8.94 30.7498 9.42C31.3498 10.125 31.1398 11.25 30.3148 11.73Z" fill="white"/>
<path d="M17.1452 21.21V31.44C17.1452 32.58 15.9902 33.33 14.9702 32.835C11.8802 31.32 6.67521 28.485 6.67521 28.485C4.84521 27.45 3.34521 24.84 3.34521 22.695V14.955C3.34521 13.77 4.59021 13.02 5.61021 13.605L16.3952 19.86C16.8452 20.145 17.1452 20.655 17.1452 21.21Z" fill="white"/>
<path d="M18.855 21.21V31.44C18.855 32.58 20.01 33.33 21.03 32.835C24.12 31.32 29.325 28.485 29.325 28.485C31.155 27.45 32.655 24.84 32.655 22.695V14.955C32.655 13.77 31.41 13.02 30.39 13.605L19.605 19.86C19.155 20.145 18.855 20.655 18.855 21.21Z" fill="white"/>
</svg>
