<svg width="32" height="32" viewBox="0 0 32 32" fill="none" xmlns="http://www.w3.org/2000/svg">
<path d="M15.9998 11C13.6132 11 11.6665 12.9467 11.6665 15.3333C11.6665 17.72 13.6132 19.6667 15.9998 19.6667C18.3865 19.6667 20.3332 17.72 20.3332 15.3333C20.3332 12.9467 18.3865 11 15.9998 11ZM17.3332 14.9067C17.3332 15.72 16.8932 16.4933 16.1998 16.9067L15.1732 17.52C15.0132 17.6133 14.8398 17.6667 14.6532 17.6667C14.3198 17.6667 13.9865 17.4933 13.7998 17.1867C13.5198 16.7067 13.6665 16.0933 14.1465 15.8133L15.1598 15.2C15.2665 15.1333 15.3198 15.0267 15.3198 14.92V13.68C15.3198 13.1333 15.7732 12.68 16.3198 12.68C16.8665 12.68 17.3332 13.12 17.3332 13.6667V14.9067Z" fill="white"/>
<path d="M24.7201 5.56L17.3867 2.81333C16.6267 2.53333 15.3867 2.53333 14.6267 2.81333L7.2934 5.56C5.88006 6.09333 4.7334 7.74667 4.7334 9.25333V20.0533C4.7334 21.1333 5.44007 22.56 6.30673 23.2L13.6401 28.68C14.9334 29.6533 17.0534 29.6533 18.3467 28.68L25.6801 23.2C26.5467 22.5467 27.2534 21.1333 27.2534 20.0533V9.25333C27.2667 7.74667 26.1201 6.09333 24.7201 5.56ZM16.0001 21.6667C12.5067 21.6667 9.66673 18.8267 9.66673 15.3333C9.66673 11.84 12.5067 9 16.0001 9C19.4934 9 22.3334 11.84 22.3334 15.3333C22.3334 18.8267 19.4934 21.6667 16.0001 21.6667Z" fill="white"/>
</svg>
